<?xml version="1.0" encoding="UTF-8" standalone="no"?>
<svg
   version="1.1"
   width="841.88977pt"
   height="595.27557pt"
   id="svg13"
   viewBox="0 0 841.88977 595.27557"
   sodipodi:docname="Bioesthetics - Logomarca.cdr"
   xmlns:inkscape="http://www.inkscape.org/namespaces/inkscape"
   xmlns:sodipodi="http://sodipodi.sourceforge.net/DTD/sodipodi-0.dtd"
   xmlns="http://www.w3.org/2000/svg"
   xmlns:svg="http://www.w3.org/2000/svg">
  <defs
     id="defs13" />
  <sodipodi:namedview
     id="namedview13"
     pagecolor="#ffffff"
     bordercolor="#000000"
     borderopacity="0.25"
     inkscape:showpageshadow="2"
     inkscape:pageopacity="0.0"
     inkscape:pagecheckerboard="0"
     inkscape:deskcolor="#d1d1d1"
     inkscape:document-units="pt" />
  <g
     id="Layer1000">
    <g
       id="Layer1001">
      <path
         d="m 141.7741,214.8903 c 0,-1.2182 1.0184,-2.2059 2.2741,-2.2059 1.2557,0 2.2741,0.9877 2.2741,2.2059 v 129.7819 c 0,1.2181 -1.0184,2.2058 -2.2741,2.2058 -1.2557,0 -2.2741,-0.9877 -2.2741,-2.2058 z"
         style="fill:#214368;fill-rule:evenodd"
         id="path1" />
      <path
         d="m 96.0342,214.8903 c 0,-1.2182 1.0184,-2.2059 2.2741,-2.2059 0.4567,0 1.0237,0.2513 1.712,0.7539 19.9727,13.9293 30.0455,31.1644 18.9865,53.5541 -1.9682,3.9854 -3.8857,8.0742 -8.106,12.1358 24.0669,36.6488 9.953,59.319 -11.222,67.3045 -0.3813,0.2793 -0.8558,0.4453 -1.3705,0.4453 -1.2557,0 -2.2741,-0.9877 -2.2741,-2.2058 z m 4.5482,4.6126 v 122.2012 c 20.5003,-11.6529 24.9166,-31.1417 6.4475,-60.4807 -1.156,-1.8686 -0.3969,-4.0385 1.3982,-5.8062 3.9399,-4.3886 6.0805,-8.9244 7.7748,-13.3119 6.4933,-16.817 0.1103,-32.5156 -15.6205,-42.6024 z"
         style="fill:#214368;fill-rule:evenodd"
         id="path2" />
      <path
         d="m 202.1945,216.5636 c 18.23,0 33.0064,28.4283 33.0064,63.4966 0,35.0683 -14.7764,63.4965 -33.0064,63.4965 -18.23,0 -33.0068,-28.4282 -33.0068,-63.4965 0,-35.0683 14.7768,-63.4966 33.0068,-63.4966 z m 0,-3.7439 c 21.0961,0 38.1959,30.1047 38.1959,67.2405 0,37.1358 -17.0998,67.2404 -38.1959,67.2404 -21.0962,0 -38.1963,-30.1046 -38.1963,-67.2404 0,-37.1358 17.1001,-67.2405 38.1963,-67.2405 z"
         style="fill:#214368;fill-rule:evenodd"
         id="path3" />
      <path
         d="m 337.0294,211.5106 c 1.3736,-1.5699 3.7602,-1.7287 5.3301,-0.3552 1.5699,1.3736 1.7287,3.7603 0.3552,5.3302 -11.7431,13.3808 -16.4081,24.7487 -16.7602,34.3 -0.3411,9.2673 3.4343,16.9735 8.6882,23.1796 7.1699,8.4695 14.7366,18.0973 16.4062,29.8333 1.6916,11.892 -2.7016,25.3764 -19.6684,40.8521 -1.5452,1.4061 -3.9387,1.2935 -5.3449,-0.2517 -1.4061,-1.5453 -1.2936,-3.9388 0.2517,-5.3449 14.7385,-13.4434 18.6314,-24.6207 17.2699,-34.1897 -1.3834,-9.7253 -8.211,-18.3616 -14.6884,-26.0136 -6.3368,-7.4852 -10.8869,-16.8739 -10.4651,-28.332 0.4116,-11.1742 5.6007,-24.1665 18.6257,-39.0081 z"
         style="fill:#214368;fill-rule:evenodd"
         id="path4" />
      <path
         d="m 731.646,211.5106 c 1.3735,-1.5699 3.7602,-1.7287 5.3301,-0.3552 1.5699,1.3736 1.7287,3.7603 0.3552,5.3302 -11.7432,13.3808 -16.4081,24.7487 -16.7602,34.3 -0.3411,9.2673 3.4343,16.9735 8.6882,23.1796 7.1699,8.4695 14.7366,18.0973 16.4062,29.8333 1.6915,11.892 -2.7017,25.3764 -19.6684,40.8521 -1.5453,1.4061 -3.9388,1.2935 -5.3449,-0.2517 -1.4062,-1.5453 -1.2936,-3.9388 0.2516,-5.3449 14.7385,-13.4434 18.6314,-24.6207 17.27,-34.1897 -1.3834,-9.7253 -8.211,-18.3616 -14.6885,-26.0136 -6.3368,-7.4852 -10.8869,-16.8739 -10.465,-28.332 0.4116,-11.1742 5.6007,-24.1665 18.6257,-39.0081 z"
         style="fill:#214368;fill-rule:evenodd"
         id="path5" />
      <path
         d="m 297.7131,211.0345 c 1.8068,-1.0464 4.1207,-0.4298 5.1672,1.377 1.0464,1.8068 0.4298,4.1207 -1.377,5.1672 -11.2656,6.5536 -19.4785,16.0605 -24.8776,26.9944 -4.2511,8.6094 -6.7663,18.1057 -7.6626,27.7555 h 14.9416 c 2.093,0 3.7902,1.6972 3.7902,3.7902 0,2.0929 -1.6972,3.7901 -3.7902,3.7901 h -15.3146 c -0.008,1.3133 0.0129,2.6263 0.0633,3.9365 0.5166,13.4719 4.0998,26.6446 10.4306,37.5274 5.4518,9.372 12.9423,17.0149 22.2529,21.612 1.8723,0.9236 2.641,3.1909 1.7173,5.0633 -0.9236,1.8723 -3.1909,2.641 -5.0633,1.7173 -10.7133,-5.29 -19.2749,-13.9854 -25.451,-24.6024 -6.9444,-11.9376 -10.8733,-26.3464 -11.4373,-41.0507 -0.5632,-14.687 2.2351,-29.7056 8.7424,-42.8852 6.0279,-12.2078 15.226,-22.8381 27.8681,-30.1926 z"
         style="fill:#214368;fill-rule:evenodd"
         id="path6" />
      <path
         d="m 692.4976,211.0345 c 1.8068,-1.0464 4.1207,-0.4298 5.1671,1.377 1.0465,1.8068 0.4298,4.1207 -1.3769,5.1672 -11.2656,6.5536 -19.4785,16.0605 -24.8776,26.9944 -5.9381,12.0266 -8.4897,25.7831 -7.9723,39.2723 0.5166,13.4719 4.0998,26.6446 10.4306,37.5274 5.4518,9.372 12.9423,17.0149 22.2529,21.612 1.8723,0.9236 2.641,3.1909 1.7173,5.0633 -0.9237,1.8723 -3.191,2.641 -5.0633,1.7173 -10.7133,-5.29 -19.275,-13.9854 -25.4511,-24.6024 -6.9443,-11.9376 -10.8732,-26.3464 -11.4372,-41.0507 -0.5632,-14.687 2.2351,-29.7056 8.7424,-42.8852 6.0279,-12.2078 15.2259,-22.8381 27.8681,-30.1926 z"
         style="fill:#214368;fill-rule:evenodd"
         id="path7" />
      <path
         d="m 532.5561,211.0345 c 1.8068,-1.0464 4.1207,-0.4298 5.1672,1.377 1.0464,1.8068 0.4298,4.1207 -1.377,5.1672 -11.2656,6.5536 -19.4785,16.0605 -24.8776,26.9944 -4.2511,8.6094 -6.7662,18.1057 -7.6626,27.7555 h 14.9416 c 2.093,0 3.7902,1.6972 3.7902,3.7902 0,2.0929 -1.6972,3.7901 -3.7902,3.7901 h -15.3146 c -0.008,1.3133 0.0129,2.6263 0.0633,3.9365 0.5166,13.4719 4.0999,26.6446 10.4306,37.5274 5.4518,9.372 12.9423,17.0149 22.2529,21.612 1.8724,0.9236 2.641,3.1909 1.7173,5.0633 -0.9236,1.8723 -3.1909,2.641 -5.0633,1.7173 -10.7133,-5.29 -19.2749,-13.9854 -25.451,-24.6024 -6.9444,-11.9376 -10.8733,-26.3464 -11.4373,-41.0507 -0.5632,-14.687 2.2351,-29.7056 8.7425,-42.8852 6.0279,-12.2078 15.2259,-22.8381 27.868,-30.1926 z"
         style="fill:#214368;fill-rule:evenodd"
         id="path8" />
      <path
         d="m 391.4697,344.3303 c 0,2.0929 -1.6973,3.7902 -3.7902,3.7902 -2.0929,0 -3.7902,-1.6973 -3.7902,-3.7902 V 217.7056 h -18.786 c -2.093,0 -3.7902,-1.6972 -3.7902,-3.7901 0,-2.093 1.6972,-3.7902 3.7902,-3.7902 h 45.1524 c 2.0929,0 3.7902,1.6972 3.7902,3.7902 0,2.0929 -1.6973,3.7901 -3.7902,3.7901 h -18.786 z"
         style="fill:#214368;fill-rule:evenodd"
         id="path9" />
      <path
         d="m 476.1931,344.3303 c 0,2.0929 -1.6972,3.7902 -3.7902,3.7902 -2.0929,0 -3.7902,-1.6973 -3.7902,-3.7902 v -62.9879 h -30.2433 v 62.9879 c 0,2.0929 -1.6973,3.7902 -3.7902,3.7902 -2.093,0 -3.7902,-1.6973 -3.7902,-3.7902 V 213.9155 c 0,-2.093 1.6972,-3.7902 3.7902,-3.7902 2.0929,0 3.7902,1.6972 3.7902,3.7902 v 59.8465 h 30.2433 v -59.8465 c 0,-2.093 1.6973,-3.7902 3.7902,-3.7902 2.093,0 3.7902,1.6972 3.7902,3.7902 z"
         style="fill:#214368;fill-rule:evenodd"
         id="path10" />
      <path
         d="m 632.7306,344.3303 c 0,2.0929 -1.6972,3.7902 -3.7902,3.7902 -2.0929,0 -3.7902,-1.6973 -3.7902,-3.7902 V 213.3215 c 0,-2.0929 1.6973,-3.7902 3.7902,-3.7902 2.093,0 3.7902,1.6973 3.7902,3.7902 z"
         style="fill:#214368;fill-rule:evenodd"
         id="path11" />
      <path
         d="m 585.0012,344.3303 c 0,2.0929 -1.6972,3.7902 -3.7902,3.7902 -2.0929,0 -3.7901,-1.6973 -3.7901,-3.7902 V 217.7056 h -18.7861 c -2.0929,0 -3.7901,-1.6972 -3.7901,-3.7901 0,-2.093 1.6972,-3.7902 3.7901,-3.7902 h 45.1525 c 2.0929,0 3.7901,1.6972 3.7901,3.7902 0,2.0929 -1.6972,3.7901 -3.7901,3.7901 h -18.7861 z"
         style="fill:#214368;fill-rule:evenodd"
         id="path12" />
    </g>
    <path
       d="m 97.2259,376.4398 c 0,2.2626 0.5209,4.0309 1.5643,5.3066 1.0434,1.2723 2.4866,1.9109 4.3329,1.9109 1.8413,0 3.2762,-0.6386 4.3113,-1.9109 1.0351,-1.2757 1.551,-3.044 1.551,-5.3066 0,-2.271 -0.5159,-4.0426 -1.551,-5.3099 -1.0351,-1.2724 -2.47,-1.9077 -4.3113,-1.9077 -1.8463,0 -3.2895,0.6353 -4.3329,1.9077 -1.0434,1.2673 -1.5643,3.0389 -1.5643,5.3099 z m -2.4783,0 c 0,-2.9162 0.7399,-5.1955 2.2212,-6.841 1.4847,-1.6406 3.535,-2.4634 6.1543,-2.4634 2.6143,0 4.6563,0.8195 6.1327,2.46 1.473,1.6357 2.2095,3.9199 2.2095,6.8444 0,2.9179 -0.7365,5.1971 -2.2095,6.841 -1.4764,1.6406 -3.5184,2.4634 -6.1327,2.4634 -2.6193,0 -4.6696,-0.8228 -6.1543,-2.4634 -1.4813,-1.6439 -2.2212,-3.9231 -2.2212,-6.841 z m 29.7362,-6.7996 h -4.1205 v 13.4531 h 4.1205 c 1.7667,0 3.1004,-0.5739 4.0011,-1.7185 0.9041,-1.1463 1.3536,-2.8432 1.3536,-5.086 0,-2.1482 -0.4578,-3.7937 -1.3785,-4.935 -0.9156,-1.1413 -2.2427,-1.7136 -3.9762,-1.7136 z m -6.5258,15.6129 v -17.6499 h 6.7299 c 2.4583,0 4.3411,0.7349 5.6466,2.2046 1.3038,1.468 1.9591,3.588 1.9591,6.3616 0,2.8681 -0.6752,5.0992 -2.0288,6.695 -1.3552,1.5908 -3.2446,2.3887 -5.6715,2.3887 z m 22.5451,-8.8133 c 0,2.2626 0.5209,4.0309 1.5643,5.3066 1.0434,1.2723 2.4866,1.9109 4.3329,1.9109 1.8413,0 3.2762,-0.6386 4.3113,-1.9109 1.0351,-1.2757 1.551,-3.044 1.551,-5.3066 0,-2.271 -0.5159,-4.0426 -1.551,-5.3099 -1.0351,-1.2724 -2.47,-1.9077 -4.3113,-1.9077 -1.8463,0 -3.2895,0.6353 -4.3329,1.9077 -1.0434,1.2673 -1.5643,3.0389 -1.5643,5.3099 z m -2.4783,0 c 0,-2.9162 0.7399,-5.1955 2.2212,-6.841 1.4847,-1.6406 3.535,-2.4634 6.1543,-2.4634 2.6143,0 4.6563,0.8195 6.1327,2.46 1.473,1.6357 2.2095,3.9199 2.2095,6.8444 0,2.9179 -0.7365,5.1971 -2.2095,6.841 -1.4764,1.6406 -3.5184,2.4634 -6.1327,2.4634 -2.6193,0 -4.6696,-0.8228 -6.1543,-2.4634 -1.4813,-1.6439 -2.2212,-3.9231 -2.2212,-6.841 z m 23.1855,8.8133 v -17.6499 h 2.6259 l 8.2577,12.8227 c 0.1841,0.2771 0.3434,0.5392 0.4777,0.7897 0.136,0.2455 0.2422,0.4777 0.3235,0.695 v -14.3074 h 2.2825 v 17.6499 h -2.601 l -8.4252,-13.0035 c -0.1261,-0.1958 -0.2455,-0.4048 -0.3517,-0.6204 -0.1111,-0.2173 -0.2123,-0.4429 -0.3068,-0.6835 v 14.3074 z m 25.1047,0 v -15.515 h -5.5736 v -2.1349 h 13.5509 v 2.1349 h -5.572 v 15.515 z m 15.2994,-8.8133 c 0,2.2626 0.5209,4.0309 1.5643,5.3066 1.0434,1.2723 2.4866,1.9109 4.3329,1.9109 1.8413,0 3.2761,-0.6386 4.3113,-1.9109 1.0351,-1.2757 1.551,-3.044 1.551,-5.3066 0,-2.271 -0.5159,-4.0426 -1.551,-5.3099 -1.0352,-1.2724 -2.47,-1.9077 -4.3113,-1.9077 -1.8463,0 -3.2895,0.6353 -4.3329,1.9077 -1.0434,1.2673 -1.5643,3.0389 -1.5643,5.3099 z m -2.4783,0 c 0,-2.9162 0.7399,-5.1955 2.2212,-6.841 1.4846,-1.6406 3.535,-2.4634 6.1543,-2.4634 2.6143,0 4.6563,0.8195 6.1326,2.46 1.4731,1.6357 2.2096,3.9199 2.2096,6.8444 0,2.9179 -0.7365,5.1971 -2.2096,6.841 -1.4763,1.6406 -3.5183,2.4634 -6.1326,2.4634 -2.6193,0 -4.6697,-0.8228 -6.1543,-2.4634 -1.4813,-1.6439 -2.2212,-3.9231 -2.2212,-6.841 z m 23.2104,8.8133 v -17.6499 h 2.4302 v 15.4155 h 8.7884 v 2.2344 z m 17.4509,-8.8133 c 0,2.2626 0.5208,4.0309 1.5642,5.3066 1.0434,1.2723 2.4866,1.9109 4.3329,1.9109 1.8413,0 3.2762,-0.6386 4.3113,-1.9109 1.0351,-1.2757 1.551,-3.044 1.551,-5.3066 0,-2.271 -0.5159,-4.0426 -1.551,-5.3099 -1.0351,-1.2724 -2.47,-1.9077 -4.3113,-1.9077 -1.8463,0 -3.2895,0.6353 -4.3329,1.9077 -1.0434,1.2673 -1.5642,3.0389 -1.5642,5.3099 z m -2.4783,0 c 0,-2.9162 0.7398,-5.1955 2.2211,-6.841 1.4847,-1.6406 3.535,-2.4634 6.1543,-2.4634 2.6143,0 4.6563,0.8195 6.1327,2.46 1.473,1.6357 2.2095,3.9199 2.2095,6.8444 0,2.9179 -0.7365,5.1971 -2.2095,6.841 -1.4764,1.6406 -3.5184,2.4634 -6.1327,2.4634 -2.6193,0 -4.6696,-0.8228 -6.1543,-2.4634 -1.4813,-1.6439 -2.2211,-3.9231 -2.2211,-6.841 z m 36.4245,6.4479 c -0.7199,0.9538 -1.5742,1.6654 -2.5645,2.1448 -0.9903,0.4744 -2.115,0.7117 -3.3807,0.7117 -2.3887,0 -4.3246,-0.856 -5.8092,-2.5613 -1.4814,-1.7069 -2.2212,-3.9447 -2.2212,-6.7182 0,-2.8847 0.7647,-5.164 2.2991,-6.8294 1.5345,-1.6638 3.6163,-2.4999 6.2472,-2.4999 2.0138,0 3.6544,0.5126 4.9267,1.5311 1.269,1.0185 2.0337,2.4385 2.2875,4.2632 h -2.3323 c -0.2173,-1.191 -0.7498,-2.1117 -1.6007,-2.7586 -0.851,-0.6503 -1.9475,-0.9738 -3.2812,-0.9738 -1.9259,0 -3.4205,0.6271 -4.4805,1.8795 -1.0583,1.2474 -1.5875,3.0108 -1.5875,5.29 0,2.2543 0.5242,4.0177 1.5726,5.285 1.0467,1.274 2.4865,1.9077 4.3279,1.9077 1.6621,0 2.9875,-0.5076 3.9811,-1.5228 0.9904,-1.0103 1.4847,-2.3771 1.4847,-4.0907 v -0.2289 h -5.5272 v -1.989 h 7.7368 v 9.525 h -1.5627 z m 9.0655,2.3654 v -17.6499 h 2.4053 v 17.6499 z m 12.8709,-7.3403 h 5.5023 l -2.7321,-7.7815 z m -5.1059,7.3403 6.5574,-17.6499 h 2.6475 l 6.5789,17.6499 h -2.6011 l -1.8711,-5.2784 h -6.9472 l -1.8811,5.2784 z m 29.5952,-9.1318 c 0,-0.982 0.3484,-1.8164 1.0434,-2.5048 0.6951,-0.6868 1.5344,-1.0302 2.5165,-1.0302 0.9737,0 1.8081,0.3434 2.4998,1.0351 0.6917,0.6918 1.0351,1.5262 1.0351,2.4999 0,0.9737 -0.3483,1.8114 -1.0484,2.5115 -0.6983,0.7 -1.5377,1.0483 -2.5114,1.0483 -0.9821,0 -1.8164,-0.3483 -2.5049,-1.0434 -0.6867,-0.6967 -1.0301,-1.5344 -1.0301,-2.5164 z m 22.8869,9.1318 v -17.6499 h 12.5839 v 2.1847 h -10.2035 v 5.2767 h 9.4271 v 2.0636 h -9.4271 v 5.9154 h 10.4092 v 2.2095 z m 18.3516,-5.8175 h 2.3074 c 0.0249,1.2806 0.4512,2.2992 1.2773,3.0606 0.8311,0.7564 1.9342,1.1363 3.3177,1.1363 1.3669,0 2.4468,-0.2854 3.2331,-0.8626 0.7896,-0.5773 1.181,-1.3636 1.181,-2.3522 0,-1.3503 -1.4796,-2.3821 -4.439,-3.0855 -0.1758,-0.0414 -0.3102,-0.0696 -0.4047,-0.0945 -2.397,-0.569 -3.9812,-1.2027 -4.7493,-1.8977 -0.7746,-0.7 -1.1578,-1.6937 -1.1578,-2.9793 0,-1.5759 0.5756,-2.8399 1.7252,-3.7921 1.1495,-0.9538 2.6806,-1.4332 4.5916,-1.4332 1.9475,0 3.4819,0.4993 4.5983,1.5029 1.1213,0.997 1.6853,2.3721 1.7019,4.1189 l -2.2825,0.0133 c -0.0813,-1.1745 -0.4827,-2.0786 -1.2077,-2.7056 -0.7232,-0.6254 -1.7135,-0.9406 -2.9693,-0.9406 -1.1744,0 -2.1166,0.2572 -2.82,0.7697 -0.7033,0.5159 -1.055,1.1977 -1.055,2.0487 0,1.3636 1.4565,2.3821 4.3694,3.0489 0.4296,0.1062 0.7614,0.1842 0.9936,0.2422 l 0.2538,0.0564 c 1.8994,0.4578 3.1584,0.9489 3.7855,1.4764 0.4711,0.4014 0.831,0.8891 1.0765,1.4581 0.2489,0.5723 0.3716,1.2109 0.3716,1.9143 0,1.7052 -0.6104,3.0605 -1.8297,4.0674 -1.2142,1.0102 -2.8631,1.5129 -4.9416,1.5129 -2.1399,0 -3.8087,-0.5391 -5.0047,-1.624 -1.1944,-1.0849 -1.833,-2.6392 -1.9226,-4.6597 z m 24.0447,5.8175 v -15.515 h -5.5736 v -2.1349 h 13.551 v 2.1349 h -5.5721 v 15.515 z m 13.5825,0 v -17.6499 h 12.5839 v 2.1847 h -10.2034 v 5.2767 h 9.4271 v 2.0636 h -9.4271 v 5.9154 h 10.4091 v 2.2095 z m 4.4673,-19.1976 2.4467,-4.1736 h 2.4136 l -3.4205,4.1736 z m 18.5988,19.1976 v -15.515 h -5.5737 v -2.1349 h 13.551 v 2.1349 h -5.572 v 15.515 z m 13.6306,0 v -17.6499 h 2.4053 v 17.6499 z m 22.0757,-6.554 h 2.3323 c -0.1012,2.1482 -0.8377,3.8584 -2.2013,5.1341 -1.3619,1.2723 -3.1219,1.911 -5.2767,1.911 -2.4883,0 -4.4357,-0.8477 -5.8474,-2.5414 -1.4117,-1.6936 -2.115,-4.0425 -2.115,-7.0367 0,-2.7653 0.7398,-4.9632 2.2179,-6.5922 1.4763,-1.624 3.4735,-2.4385 5.9817,-2.4385 1.9956,0 3.6328,0.5159 4.9052,1.5477 1.2773,1.0301 2.0121,2.4385 2.2128,4.2217 h -2.3555 c -0.2256,-1.1661 -0.7581,-2.0652 -1.5925,-2.6923 -0.8377,-0.6253 -1.9309,-0.9405 -3.2729,-0.9405 -1.7882,0 -3.175,0.6254 -4.1603,1.8811 -0.987,1.2574 -1.4813,3.024 -1.4813,5.3116 0,2.1564 0.5109,3.8866 1.5377,5.1871 1.0268,1.3055 2.3887,1.9558 4.084,1.9558 1.4432,0 2.6309,-0.4496 3.5516,-1.3453 0.924,-0.9008 1.415,-2.0868 1.4797,-3.5632 z m 11.7661,-0.7863 h 5.5023 l -2.7321,-7.7815 z m -5.1059,7.3403 6.5573,-17.6499 h 2.6475 l 6.5789,17.6499 h -2.601 l -1.8712,-5.2784 h -6.9471 l -1.8812,5.2784 z m 29.5952,-9.1318 c 0,-0.982 0.3483,-1.8164 1.0434,-2.5048 0.695,-0.6868 1.5344,-1.0302 2.5164,-1.0302 0.9737,0 1.8081,0.3434 2.4999,1.0351 0.6917,0.6918 1.0351,1.5262 1.0351,2.4999 0,0.9737 -0.3484,1.8114 -1.0484,2.5115 -0.6984,0.7 -1.5377,1.0483 -2.5115,1.0483 -0.982,0 -1.8164,-0.3483 -2.5048,-1.0434 -0.6868,-0.6967 -1.0301,-1.5344 -1.0301,-2.5164 z m 25.2424,-6.4562 v 5.9901 h 4.0956 c 1.4813,0 2.5248,-0.2422 3.1385,-0.7216 0.6105,-0.4778 0.9157,-1.2807 0.9157,-2.4004 0,-1.0483 -0.2853,-1.7882 -0.8626,-2.2228 -0.5773,-0.4296 -1.6406,-0.6453 -3.1916,-0.6453 z m -2.3556,-2.0619 h 6.8477 c 1.1097,0 1.9275,0.0481 2.4517,0.1427 0.5242,0.0978 0.9937,0.2571 1.4067,0.4777 0.7448,0.4097 1.3105,0.9787 1.6987,1.702 0.3881,0.7298 0.5805,1.5841 0.5805,2.5662 0,0.9488 -0.204,1.7633 -0.6087,2.4384 -0.4098,0.6752 -1.0153,1.2027 -1.8214,1.5875 0.6867,0.1925 1.1744,0.5159 1.4697,0.9705 0.2903,0.4528 0.4694,1.2275 0.5441,2.3107 l 0.204,2.9129 c 0.0365,0.6221 0.1178,1.0882 0.2455,1.3951 0.1228,0.3069 0.3069,0.5292 0.5557,0.6552 v 0.491 h -2.7686 c -0.2256,-0.3682 -0.3815,-1.1545 -0.4711,-2.3605 v -0.0696 l -0.1476,-2.3042 c -0.078,-1.1827 -0.3318,-1.9474 -0.7531,-2.2991 -0.4247,-0.3517 -1.4813,-0.5275 -3.175,-0.5275 H 519.33 v 7.5609 h -2.3804 z m 19.7733,17.6499 v -17.6499 h 12.5839 v 2.1847 h -10.2035 v 5.2767 h 9.4271 v 2.0636 h -9.4271 v 5.9154 h 10.4091 v 2.2095 z m 18.3516,-5.8175 h 2.3074 c 0.0249,1.2806 0.4512,2.2992 1.2773,3.0606 0.8311,0.7564 1.9342,1.1363 3.3177,1.1363 1.3669,0 2.4468,-0.2854 3.2331,-0.8626 0.7896,-0.5773 1.181,-1.3636 1.181,-2.3522 0,-1.3503 -1.4796,-2.3821 -4.439,-3.0855 -0.1758,-0.0414 -0.3102,-0.0696 -0.4047,-0.0945 -2.3971,-0.569 -3.9812,-1.2027 -4.7493,-1.8977 -0.7746,-0.7 -1.1578,-1.6937 -1.1578,-2.9793 0,-1.5759 0.5756,-2.8399 1.7251,-3.7921 1.1496,-0.9538 2.6807,-1.4332 4.5917,-1.4332 1.9475,0 3.4819,0.4993 4.5983,1.5029 1.1213,0.997 1.6853,2.3721 1.7019,4.1189 l -2.2825,0.0133 c -0.0813,-1.1745 -0.4827,-2.0786 -1.2077,-2.7056 -0.7232,-0.6254 -1.7135,-0.9406 -2.9693,-0.9406 -1.1744,0 -2.1166,0.2572 -2.82,0.7697 -0.7033,0.5159 -1.055,1.1977 -1.055,2.0487 0,1.3636 1.4565,2.3821 4.3694,3.0489 0.4296,0.1062 0.7614,0.1842 0.9936,0.2422 l 0.2538,0.0564 c 1.8994,0.4578 3.1584,0.9489 3.7855,1.4764 0.4711,0.4014 0.831,0.8891 1.0765,1.4581 0.2489,0.5723 0.3716,1.2109 0.3716,1.9143 0,1.7052 -0.6104,3.0605 -1.8297,4.0674 -1.2142,1.0102 -2.8631,1.5129 -4.9416,1.5129 -2.1399,0 -3.8087,-0.5391 -5.0047,-1.624 -1.1944,-1.0849 -1.833,-2.6392 -1.9226,-4.6597 z m 24.0447,5.8175 v -15.515 h -5.5736 v -2.1349 h 13.551 v 2.1349 h -5.5721 v 15.515 z m 15.8485,-7.3403 h 5.5023 l -2.7321,-7.7815 z m -5.1059,7.3403 6.5574,-17.6499 h 2.6475 l 6.5789,17.6499 h -2.6011 l -1.8711,-5.2784 h -6.9472 l -1.8811,5.2784 z m 20.5479,-6.6933 v -10.9566 h 2.407 v 10.9765 c 0,1.6571 0.3633,2.8814 1.0965,3.671 0.7315,0.7896 1.8612,1.186 3.3956,1.186 1.5178,0 2.6508,-0.4014 3.3956,-1.2026 0.7482,-0.8062 1.1214,-2.0221 1.1214,-3.6544 v -10.9765 h 2.4053 v 10.9566 c 0,2.3605 -0.6088,4.1487 -1.828,5.363 -1.2193,1.2159 -3.0125,1.8214 -5.3763,1.8214 -2.2062,0 -3.8584,-0.5972 -4.9632,-1.7966 -1.1015,-1.1976 -1.6539,-2.9941 -1.6539,-5.3878 z m 23.3315,-8.8947 v 5.9901 h 4.0956 c 1.4814,0 2.5248,-0.2422 3.1385,-0.7216 0.6105,-0.4778 0.9157,-1.2807 0.9157,-2.4004 0,-1.0483 -0.2853,-1.7882 -0.8626,-2.2228 -0.5773,-0.4296 -1.6406,-0.6453 -3.1916,-0.6453 z m -2.3556,-2.0619 h 6.8477 c 1.1097,0 1.9276,0.0481 2.4517,0.1427 0.5242,0.0978 0.9937,0.2571 1.4067,0.4777 0.7448,0.4097 1.3105,0.9787 1.6987,1.702 0.3881,0.7298 0.5806,1.5841 0.5806,2.5662 0,0.9488 -0.2041,1.7633 -0.6088,2.4384 -0.4098,0.6752 -1.0152,1.2027 -1.8214,1.5875 0.6867,0.1925 1.1744,0.5159 1.4697,0.9705 0.2903,0.4528 0.4694,1.2275 0.5441,2.3107 l 0.204,2.9129 c 0.0365,0.6221 0.1178,1.0882 0.2455,1.3951 0.1228,0.3069 0.3069,0.5292 0.5557,0.6552 v 0.491 h -2.7685 c -0.2256,-0.3682 -0.3816,-1.1545 -0.4712,-2.3605 v -0.0696 l -0.1476,-2.3042 c -0.078,-1.1827 -0.3318,-1.9474 -0.7531,-2.2991 -0.4247,-0.3517 -1.4813,-0.5275 -3.175,-0.5275 h -3.8783 v 7.5609 h -2.3805 z m 22.9151,10.3096 h 5.5024 l -2.7321,-7.7815 z m -5.1059,7.3403 6.5574,-17.6499 h 2.6475 l 6.5789,17.6499 h -2.601 l -1.8712,-5.2784 h -6.9472 l -1.8811,5.2784 z m 27.603,-15.6129 h -4.1206 v 13.4531 h 4.1206 c 1.7666,0 3.1003,-0.5739 4.0011,-1.7185 0.904,-1.1463 1.3536,-2.8432 1.3536,-5.086 0,-2.1482 -0.4579,-3.7937 -1.3785,-4.935 -0.9157,-1.1413 -2.2428,-1.7136 -3.9762,-1.7136 z m -6.5259,15.6129 v -17.6499 h 6.7299 c 2.4584,0 4.3412,0.7349 5.6467,2.2046 1.3038,1.468 1.959,3.588 1.959,6.3616 0,2.8681 -0.6751,5.0992 -2.0287,6.695 -1.3553,1.5908 -3.2447,2.3887 -5.6716,2.3887 z m 22.5452,-8.8133 c 0,2.2626 0.5209,4.0309 1.5643,5.3066 1.0434,1.2723 2.4865,1.9109 4.3328,1.9109 1.8413,0 3.2762,-0.6386 4.3113,-1.9109 1.0351,-1.2757 1.551,-3.044 1.551,-5.3066 0,-2.271 -0.5159,-4.0426 -1.551,-5.3099 -1.0351,-1.2724 -2.47,-1.9077 -4.3113,-1.9077 -1.8463,0 -3.2894,0.6353 -4.3328,1.9077 -1.0434,1.2673 -1.5643,3.0389 -1.5643,5.3099 z m -2.4783,0 c 0,-2.9162 0.7398,-5.1955 2.2212,-6.841 1.4846,-1.6406 3.5349,-2.4634 6.1542,-2.4634 2.6143,0 4.6564,0.8195 6.1327,2.46 1.4731,1.6357 2.2096,3.9199 2.2096,6.8444 0,2.9179 -0.7365,5.1971 -2.2096,6.841 -1.4763,1.6406 -3.5184,2.4634 -6.1327,2.4634 -2.6193,0 -4.6696,-0.8228 -6.1542,-2.4634 -1.4814,-1.6439 -2.2212,-3.9231 -2.2212,-6.841 z m 25.5659,-6.7747 v 5.9901 h 4.0956 c 1.4814,0 2.5248,-0.2422 3.1385,-0.7216 0.6105,-0.4778 0.9157,-1.2807 0.9157,-2.4004 0,-1.0483 -0.2853,-1.7882 -0.8626,-2.2228 -0.5773,-0.4296 -1.6406,-0.6453 -3.1916,-0.6453 z m -2.3556,-2.0619 h 6.8477 c 1.1097,0 1.9275,0.0481 2.4517,0.1427 0.5242,0.0978 0.9937,0.2571 1.4067,0.4777 0.7448,0.4097 1.3105,0.9787 1.6987,1.702 0.3881,0.7298 0.5805,1.5841 0.5805,2.5662 0,0.9488 -0.204,1.7633 -0.6087,2.4384 -0.4098,0.6752 -1.0152,1.2027 -1.8214,1.5875 0.6867,0.1925 1.1744,0.5159 1.4697,0.9705 0.2903,0.4528 0.4694,1.2275 0.5441,2.3107 l 0.204,2.9129 c 0.0365,0.6221 0.1178,1.0882 0.2455,1.3951 0.1228,0.3069 0.3069,0.5292 0.5557,0.6552 v 0.491 h -2.7686 c -0.2256,-0.3682 -0.3815,-1.1545 -0.4711,-2.3605 v -0.0696 l -0.1476,-2.3042 c -0.078,-1.1827 -0.3318,-1.9474 -0.7531,-2.2991 -0.4247,-0.3517 -1.4813,-0.5275 -3.175,-0.5275 h -3.8783 v 7.5609 h -2.3805 z m 22.9151,10.3096 h 5.5023 l -2.7321,-7.7815 z m -5.1059,7.3403 6.5574,-17.6499 h 2.6475 l 6.5789,17.6499 h -2.6011 l -1.8711,-5.2784 h -6.9472 l -1.8811,5.2784 z"
       style="fill:#214368;fill-rule:evenodd"
       id="path13" />
  </g>
</svg>
